#!OML:ASF F:\VICON\USERDATA\INSTALL\rory3\rory3.ASF
:FULLY-SPECIFIED
:DEGREES
861
root 0.636687 15.3687 3.56355 8.39746 -48.7503 15.8566
lowerback 2.99301 9.14105 7.90199
upperback 6.16688 12.3831 -4.8578
thorax 7.74709 6.82857 -8.81279
lowerneck -1.08012 -6.35568 -7.35935
upperneck 52.564 -14.3018 7.96398
head 25.3136 -6.2604 3.46734
rclavicle -1.82882e-014 5.725e-014
rhumerus -45.7808 54.9032 -129.84
rradius 91.0321
rwrist -26.7888
rhand 27.4087 -24.9609
rfingers 7.12502
rthumb 51.3628 -45.4375
lclavicle -1.82882e-014 5.725e-014
lhumerus 0.653914 -78.4779 78.829
lradius 101.357
lwrist 31.4416
lhand -4.82476 -20.0554
lfingers 7.12502
lthumb 20.9618 8.83196
rfemur -66.9935 -7.94401 9.17302
rtibia 88.4333
rfoot -11.5135 -12.9259
rtoes -34.9925
lfemur -57.2122 -22.6954 -29.1327
ltibia 62.33
lfoot -23.7886 5.22303
ltoes 9.93943
862
root 0.639375 15.3763 3.57321 8.37022 -48.8193 15.9025
lowerback 2.94389 9.19972 7.94922
upperback 6.16484 12.4627 -4.89067
thorax 7.81216 6.87553 -8.8545
lowerneck -1.08584 -6.37605 -7.2905
upperneck 52.5193 -14.3684 8.02459
head 25.282 -6.26488 3.47365
rclavicle 3.65764e-014 1.59028e-015
rhumerus -45.4968 54.8466 -129.611
rradius 90.9278
rwrist -26.8338
rhand 27.3492 -24.8483
rfingers 7.12502
rthumb 51.3088 -45.3557
lclavicle 3.65764e-014 1.59028e-015
lhumerus 0.859014 -78.6494 78.6708
lradius 101.369
lwrist 31.4677
lhand -4.9847 -19.6932
lfingers 7.12502
lthumb 20.8081 9.21104
rfemur -66.9157 -8.05164 9.11804
rtibia 88.3413
rfoot -11.625 -12.7769
rtoes -34.7579
lfemur -57.1414 -22.7305 -29.1977
ltibia 62.27
lfoot -23.7768 5.35155
ltoes 10.1113
863
root 0.641805 15.3822 3.57966 8.34182 -48.8809 15.9524
lowerback 2.93162 9.23154 7.96423
upperback 6.14271 12.5081 -4.93004
thorax 7.81955 6.90113 -8.89868
lowerneck -1.12717 -6.26905 -7.28292
upperneck 52.481 -14.3301 8.30896
head 25.3375 -6.23308 3.65285
rclavicle 1.59028e-014 -1.59028e-014
rhumerus -45.2012 54.7976 -129.45
rradius 90.822
rwrist -26.9219
rhand 27.3746 -24.8131
rfingers 7.12502
rthumb 51.3319 -45.3074
lclavicle 1.59028e-014 -1.59028e-014
lhumerus 0.433587 -78.7323 79.1128
lradius 101.359
lwrist 31.4708
lhand -4.86529 -19.5533
lfingers 7.12502
lthumb 20.9228 9.33828
rfemur -66.8826 -8.12327 9.07493
rtibia 88.292
rfoot -11.5944 -12.7449
rtoes -34.6411
lfemur -57.1015 -22.7958 -29.1986
ltibia 62.2282
lfoot -23.7418 5.53879
ltoes 9.3849
864
root 0.643219 15.3827 3.58538 8.23958 -49.0068 16.1091
lowerback 2.94763 9.26097 7.84869
upperback 6.08666 12.5505 -4.96354
thorax 7.73827 6.91198 -8.8758
lowerneck -1.07917 -6.17721 -7.32643
upperneck 52.4846 -14.2806 8.51147
head 25.3853 -6.21711 3.80105
rclavicle -2.14687e-014 3.33958e-014
rhumerus -45.1958 54.6797 -129.479
rradius 90.7927
rwrist -27.0152
rhand 27.5187 -25.1534
rfingers 7.12502
rthumb 51.463 -45.5727
lclavicle -2.14687e-014 3.33958e-014
lhumerus -0.450346 -78.6261 80.0315
lradius 101.318
lwrist 31.4356
lhand -3.88804 -19.664
lfingers 7.12502
lthumb 21.8615 9.121
rfemur -66.9076 -8.08565 8.88486
rtibia 88.3034
rfoot -11.9464 -12.3461
rtoes -33.0955
lfemur -57.0825 -22.7941 -29.2801
ltibia 62.1949
lfoot -23.6981 5.74245
ltoes 8.32126
865
root 0.646215 15.3789 3.58581 8.26646 -49.0417 16.1352
lowerback 2.97292 9.24382 7.78278
upperback 6.0107 12.5276 -4.94718
thorax 7.61296 6.88814 -8.83751
lowerneck -0.888238 -6.13461 -7.38418
upperneck 52.3925 -14.2167 8.58044
head 25.1881 -6.2058 3.86402
rclavicle -2.78299e-014 -4.45278e-014
rhumerus -45.2658 54.6488 -129.549
rradius 90.7673
rwrist -27.1289
rhand 27.3531 -25.0876
rfingers 7.12502
rthumb 51.3123 -45.5931
lclavicle -2.78299e-014 -4.45278e-014
lhumerus -1.33893 -78.4545 80.9875
lradius 101.255
lwrist 31.2911
lhand -3.59202 -19.6534
lfingers 7.12502
lthumb 22.1457 9.09822
rfemur -66.9223 -7.97777 8.67169
rtibia 88.3746
rfoot -13.1053 -11.2679
rtoes -28.4314
lfemur -57.1543 -22.7679 -29.2884
ltibia 62.1833
lfoot -23.647 5.80307
ltoes 7.82262
866
root 0.650911 15.3822 3.58373 8.51785 -48.8908 15.8964
lowerback 3.05241 9.15385 7.84204
upperback 5.90979 12.4067 -4.87796
thorax 7.42297 6.81725 -8.83276
lowerneck -0.786831 -6.15149 -7.23824
upperneck 52.3042 -14.1485 8.36356
head 24.9006 -6.16285 3.70446
rclavicle -2.62396e-014 -4.29375e-014
rhumerus -46.3881 54.4103 -130.196
rradius 91.2373
rwrist -26.7939
rhand 26.7431 -24.7555
rfingers 7.12502
rthumb 50.7565 -45.5718
lclavicle -2.62396e-014 -4.29375e-014
lhumerus -1.88136 -78.3202 81.5493
lradius 101.23
lwrist 31.316
lhand -4.12603 -19.6046
lfingers 7.12502
lthumb 21.6329 9.20691
rfemur -67.0444 -8.07269 9.06451
rtibia 88.2869
rfoot -12.022 -12.4513
rtoes -31.6309
lfemur -57.2854 -22.8957 -28.9762
ltibia 62.1565
lfoot -23.767 5.07827
ltoes 10.217
867
root 0.655695 15.3824 3.57912 8.76777 -48.6955 15.6707
lowerback 3.19087 9.06267 7.85242
upperback 5.81668 12.2869 -4.81289
thorax 7.1983 6.74334 -8.81548
lowerneck -0.865329 -6.20679 -6.91865
upperneck 52.2949 -14.1584 8.06241
head 24.7619 -6.11535 3.44732
rclavicle 2.78299e-014 7.95139e-015
rhumerus -46.861 54.3189 -130.443
rradius 91.4152
rwrist -26.7381
rhand 26.2159 -24.9918
rfingers 7.12502
rthumb 50.2751 -46.0689
lclavicle 2.78299e-014 7.95139e-015
lhumerus -1.97156 -78.2844 81.6244
lradius 101.253
lwrist 31.5414
lhand -4.04155 -19.5865
lfingers 7.12502
lthumb 21.7141 9.21572
rfemur -67.1561 -8.18725 9.3436
rtibia 88.2549
rfoot -11.5481 -12.9003
rtoes -32.8552
lfemur -57.4486 -23.0543 -28.6912
ltibia 62.1347
lfoot -23.8805 4.17763
ltoes 14.1728
